# xmcd
#
# Track frame offsets:
# 150
# 13884
# 30251
# 50021
# 67211
# 84083
# 91128
# 108316
# 128356
# 135865
# 154916
# 164815
# 184575
# 195979
# 212657
# 228843
# 243997
# 262041
# 283018
#
# Disc length: 3867 seconds
#
# Revision: 0
# Processed by: cddbd v1.4b42PL1 Copyright (c) Steve Scherf et al.
# Submitted via: Audion 2.5.0 (http://www.panic.com/audion/)
#
DISCID=f80f1913
DTITLE=Various Artist - Mix music 2001
DYEAR=1900
DGENRE=
TTITLE0=Zelda's lullaby
TTITLE1=bring it on
TTITLE2=vivo per lei
TTITLE3=I want a mom
TTITLE4=sex on the beach
TTITLE5=Xena and Gabrielle
TTITLE6=I need you
TTITLE7=Andréa and Hélène
TTITLE8=Tarzan(frensh)
TTITLE9=Hinana Ho
TTITLE10=Know the way
TTITLE11=tu m'envoles
TTITLE12=What do
TTITLE13=geni in a bottle
TTITLE14=once upon a december
TTITLE15=Tarzan(entre deux mondes)
TTITLE16=I want you
TTITLE17=Truely Madly
TTITLE18=lullaby kids
EXTD=
EXTT0=
EXTT1=
EXTT2=
EXTT3=
EXTT4=
EXTT5=
EXTT6=
EXTT7=
EXTT8=
EXTT9=
EXTT10=
EXTT11=
EXTT12=
EXTT13=
EXTT14=
EXTT15=
EXTT16=
EXTT17=
EXTT18=
PLAYORDER=
